# This file uses meters as units for non-parametric coordinates.

mtllib JC_ModPanels_MainTile_II.mtl
g default
v 199.999985 -137.410950 199.999985
v 0.000000 0.000000 199.999985
v 199.999985 0.000000 199.999985
v 0.000000 0.000000 0.000000
v 199.999985 0.000000 0.000000
v 0.000000 -137.410950 0.000000
v 199.999985 -137.410950 0.000000
v 174.249039 -95.351494 25.750933
v 174.249039 -42.059410 25.750933
v 174.249039 -42.059410 174.249039
v 174.249039 -95.351494 174.249039
v 25.750933 -95.351494 25.750933
v 25.750933 -42.059410 25.750933
v 25.750933 -95.351494 174.249039
v 197.425140 -99.127167 2.574841
v 199.999985 -103.212044 0.000000
v 197.425140 -99.127167 197.425140
v 199.999985 -103.212044 199.999985
v 197.425140 -38.283787 2.574841
v 199.999985 -34.198875 0.000000
v 2.574841 -38.283787 2.574841
v 0.000000 -34.198875 0.000000
v 2.574841 -99.127167 2.574841
v 0.000000 -103.212044 0.000000
v 197.425140 -38.283787 197.425140
v 199.999985 -34.198875 199.999985
v 2.574841 -99.127167 197.425140
vt 0.901037 0.075291
vt 0.545525 0.075291
vt 0.545525 0.014500
vt 0.901037 0.014500
vt 0.550102 0.007239
vt 0.896460 0.007239
vt 0.484734 0.430803
vt 0.484734 0.075291
vt 0.901037 0.430803
vt 0.545525 0.430803
vt 0.477473 0.079868
vt 0.477473 0.426226
vt 0.993063 0.510426
vt 0.601972 0.510426
vt 0.601972 0.443551
vt 0.993063 0.443551
vt 0.607007 0.518414
vt 0.988029 0.518414
vt 0.993063 0.443551
vt 0.601972 0.443551
vt 0.601972 0.510426
vt 0.993063 0.510426
vt 0.607007 0.518414
vt 0.988029 0.518414
vt 0.984763 0.527579
vt 0.984763 0.631790
vt 0.694381 0.631790
vt 0.694381 0.527579
vt 0.984763 0.631790
vt 0.984763 0.527579
vt 0.694381 0.527579
vt 0.694381 0.631790
vt 0.720438 0.723072
vt 0.720438 0.965736
vt 0.749301 0.936873
vt 0.749301 0.751935
vt 0.963102 0.965736
vt 0.934239 0.936873
vt 0.963102 0.723072
vt 0.934239 0.751935
vn 0.000000 0.000000 -1.000000
vn 0.000000 0.000000 -1.000000
vn 0.000000 0.000000 -1.000000
vn 0.000000 0.000000 -1.000000
vn 1.000000 0.000000 0.000000
vn 1.000000 0.000000 0.000000
vn 1.000000 0.000000 0.000000
vn 1.000000 0.000000 0.000000
vn 0.000000 0.000000 -1.000000
vn 0.000000 0.000000 -1.000000
vn 0.000000 0.000000 -1.000000
vn 0.000000 0.000000 -1.000000
vn 1.000000 0.000000 0.000000
vn 1.000000 0.000000 0.000000
vn 1.000000 0.000000 0.000000
vn 1.000000 0.000000 0.000000
vn 1.000000 0.000000 0.000000
vn 1.000000 0.000000 0.000000
vn 1.000000 0.000000 0.000000
vn 1.000000 0.000000 0.000000
vn 0.000000 0.000000 -1.000000
vn 0.000000 0.000000 -1.000000
vn 0.000000 0.000000 -1.000000
vn 0.000000 0.000000 -1.000000
vn 0.160793 0.986988 0.000000
vn 0.160793 0.986988 0.000000
vn 0.160793 0.986988 0.000000
vn 0.160793 0.986988 0.000000
vn 0.000000 0.986988 -0.160792
vn 0.000000 0.986988 -0.160792
vn 0.000000 0.986988 -0.160792
vn 0.000000 0.986988 -0.160792
vn -0.160793 0.986988 0.000000
vn -0.160793 0.986988 0.000000
vn -0.160793 0.986988 0.000000
vn -0.160793 0.986988 0.000000
vn 0.000000 0.986988 0.160792
vn 0.000000 0.986988 0.160792
vn 0.000000 0.986988 0.160792
vn 0.000000 0.986988 0.160792
vn 0.845963 0.533242 0.000000
vn 0.845963 0.533242 0.000000
vn 0.845963 0.533242 0.000000
vn 0.845963 0.533242 0.000000
vn 0.000000 0.533241 -0.845964
vn 0.000000 0.533241 -0.845964
vn 0.000000 0.533241 -0.845964
vn 0.000000 0.533241 -0.845964
vn 0.000000 -0.533237 -0.845966
vn 0.000000 -0.533237 -0.845966
vn 0.000000 -0.533237 -0.845966
vn 0.000000 -0.533237 -0.845966
vn 0.845965 -0.533238 0.000000
vn 0.845965 -0.533239 0.000000
vn 0.845965 -0.533238 0.000000
vn 0.845965 -0.533238 0.000000
vn 0.000000 1.000000 0.000000
vn 0.000000 1.000000 0.000000
vn 0.000000 1.000000 0.000000
vn 0.000000 1.000000 0.000000
s off
g JC_ModPanels_MainTile_II
usemtl lambert2SG
f 4/1/1 5/2/2 20/3/3 22/4/4
f 26/7/5 20/8/6 5/2/7 3/10/8
f 24/13/9 16/14/10 7/15/11 6/16/12
f 1/19/13 7/20/14 16/21/15 18/22/16
f 8/25/17 9/26/18 10/27/19 11/28/20
f 9/29/21 8/30/22 12/31/23 13/32/24
f 17/33/25 15/34/26 8/35/27 11/36/28
f 15/34/29 23/37/30 12/38/31 8/35/32
f 23/37/33 27/39/34 14/40/35 12/38/36
f 27/39/37 17/33/38 11/36/39 14/40/40
f 16/21/41 15/23/42 17/24/43 18/22/44
f 15/17/45 16/14/46 24/13/47 23/18/48
f 20/3/49 19/5/50 21/6/51 22/4/52
f 19/11/53 20/8/54 26/7/55 25/12/56
f 4/1/57 2/9/58 3/10/59 5/2/60
