# This file uses meters as units for non-parametric coordinates.

mtllib JC_ModPanels_CornerPiece.mtl
g default
v 49.962402 -206.189087 -0.000031
v 0.000000 -66.120422 -0.000031
v 49.962402 -66.120422 -0.000031
v 0.000000 -66.120422 -49.962311
v 49.962402 -66.120422 -49.962311
v 0.000000 -206.189087 -49.962311
v 49.962402 -206.189087 -49.962311
v 64.056396 -65.549042 -0.000031
v 64.056396 -61.293114 -0.000031
v 0.000000 -61.293114 -64.056396
v 64.056396 -61.293114 -64.056396
v 0.000000 -65.549042 -64.056396
v 64.056396 -65.549042 -64.056396
v 0.000000 0.000000 0.000000
v 12.819336 0.000000 0.000000
v 12.819336 0.000000 -11.993347
v 0.000000 0.000000 -11.993347
v 64.056396 -89.698372 -0.000031
v 0.000000 -85.442444 -0.000031
v 64.056396 -85.442444 -0.000031
v 0.000000 -85.442444 -64.056396
v 64.056396 -85.442444 -64.056396
v 0.000000 -89.698372 -64.056396
v 64.056396 -89.698372 -64.056396
v 64.056396 -113.847694 -0.000031
v 0.000000 -109.591766 -0.000031
v 64.056396 -109.591766 -0.000031
v 0.000000 -109.591766 -64.056396
v 64.056396 -109.591766 -64.056396
v 0.000000 -113.847694 -64.056396
v 64.056396 -113.847694 -64.056396
v 64.056396 -137.997040 -0.000031
v 0.000000 -133.741104 -0.000031
v 64.056396 -133.741104 -0.000031
v 0.000000 -133.741104 -64.056396
v 64.056396 -133.741104 -64.056396
v 0.000000 -137.997040 -64.056396
v 64.056396 -137.997040 -64.056396
v 64.056396 -162.146362 -0.000031
v 0.000000 -157.890427 -0.000031
v 64.056396 -157.890427 -0.000031
v 0.000000 -157.890427 -64.056396
v 64.056396 -157.890427 -64.056396
v 0.000000 -162.146362 -64.056396
v 64.056396 -162.146362 -64.056396
v 64.056396 -186.295685 -0.000031
v 0.000000 -182.039749 -0.000031
v 64.056396 -182.039749 -0.000031
v 0.000000 -182.039749 -64.056396
v 64.056396 -182.039749 -64.056396
v 0.000000 -186.295685 -64.056396
v 64.056396 -186.295685 -64.056396
v 64.056396 -210.445023 -0.000031
v 0.000000 -206.189087 -0.000031
v 64.056396 -206.189087 -0.000031
v 0.000000 -206.189087 -64.056396
v 64.056396 -206.189087 -64.056396
v 0.000000 -210.445023 -64.056396
v 64.056396 -210.445023 -64.056396
vt 1.684738 1.080149
vt 2.145533 1.080149
vt 2.145533 1.540944
vt 1.684738 1.540944
vt 0.310687 0.428699
vt 0.310687 0.313998
vt 0.632250 0.313998
vt 0.632250 0.428700
vt 0.632250 0.199297
vt 0.310687 0.199297
vt 0.293460 0.392372
vt 0.257475 0.392260
vt 0.257530 0.358714
vt 0.293582 0.358808
vt 0.294111 0.132429
vt 0.113729 0.132027
vt 0.113753 0.120032
vt 0.294142 0.120435
vt 0.294142 0.120435
vt 0.113753 0.120032
vt 0.113729 0.132027
vt 0.294111 0.132429
vt 0.257530 0.358714
vt 0.293582 0.358808
vt 0.188654 0.451705
vt 0.017397 0.451276
vt 0.017863 0.279800
vt 0.189179 0.280378
vt 0.017903 0.268429
vt 0.189215 0.269018
vt 0.006010 0.451253
vt 0.006468 0.279755
vt 0.188654 0.451705
vt 0.017397 0.451276
vt 0.017863 0.279800
vt 0.189179 0.280378
vt 0.017903 0.268429
vt 0.189215 0.269018
vt 0.006010 0.451253
vt 0.006468 0.279755
vt 0.188654 0.451705
vt 0.017397 0.451276
vt 0.017863 0.279800
vt 0.189179 0.280378
vt 0.017903 0.268429
vt 0.189215 0.269018
vt 0.006010 0.451253
vt 0.006468 0.279755
vt 0.188654 0.451705
vt 0.017397 0.451276
vt 0.017863 0.279800
vt 0.189179 0.280378
vt 0.017903 0.268429
vt 0.189215 0.269018
vt 0.006010 0.451253
vt 0.006468 0.279755
vt 0.188654 0.451705
vt 0.017397 0.451276
vt 0.017863 0.279800
vt 0.189179 0.280378
vt 0.017903 0.268429
vt 0.189215 0.269018
vt 0.006010 0.451253
vt 0.006468 0.279755
vt 0.188654 0.451705
vt 0.017397 0.451276
vt 0.017863 0.279800
vt 0.189179 0.280378
vt 0.017903 0.268429
vt 0.189215 0.269018
vt 0.006010 0.451253
vt 0.006468 0.279755
vn 0.000000 1.000000 0.000000
vn 0.000000 1.000000 0.000000
vn 0.000000 1.000000 0.000000
vn 0.000000 1.000000 0.000000
vn 0.000000 0.000000 -1.000000
vn 0.000000 0.000000 -1.000000
vn 0.000000 0.000000 -1.000000
vn 0.000000 0.000000 -1.000000
vn 1.000000 0.000000 0.000000
vn 1.000000 0.000000 0.000000
vn 1.000000 0.000000 0.000000
vn 1.000000 0.000000 0.000000
vn 0.000000 1.000000 0.000000
vn 0.000000 1.000000 0.000000
vn 0.000000 1.000000 0.000000
vn 0.000000 1.000000 0.000000
vn 0.000000 0.605747 -0.795657
vn 0.000000 0.583853 -0.811859
vn 0.000000 0.000000 -1.000000
vn 0.000000 0.000000 -1.000000
vn 1.000000 0.000000 0.000000
vn 1.000000 0.000000 0.000000
vn 0.817140 0.576440 0.000000
vn 0.800616 0.599177 0.000000
vn 0.767239 0.641362 0.000000
vn 0.767239 0.641362 0.000000
vn 0.000000 0.647388 -0.762161
vn 0.000000 0.647388 -0.762161
vn 0.000000 1.000000 0.000000
vn 0.000000 1.000000 0.000000
vn 0.000000 1.000000 0.000000
vn 0.000000 1.000000 0.000000
vn 0.000000 0.000000 -1.000000
vn 0.000000 0.000000 -1.000000
vn 0.000000 0.000000 -1.000000
vn 0.000000 0.000000 -1.000000
vn 1.000000 0.000000 0.000000
vn 1.000000 0.000000 0.000000
vn 1.000000 0.000000 0.000000
vn 1.000000 0.000000 0.000000
vn 0.000000 1.000000 0.000000
vn 0.000000 1.000000 0.000000
vn 0.000000 1.000000 0.000000
vn 0.000000 1.000000 0.000000
vn 0.000000 0.000000 -1.000000
vn 0.000000 0.000000 -1.000000
vn 0.000000 0.000000 -1.000000
vn 0.000000 0.000000 -1.000000
vn 1.000000 0.000000 0.000000
vn 1.000000 0.000000 0.000000
vn 1.000000 0.000000 0.000000
vn 1.000000 0.000000 0.000000
vn 0.000000 1.000000 0.000000
vn 0.000000 1.000000 0.000000
vn 0.000000 1.000000 0.000000
vn 0.000000 1.000000 0.000000
vn 0.000000 0.000000 -1.000000
vn 0.000000 0.000000 -1.000000
vn 0.000000 0.000000 -1.000000
vn 0.000000 0.000000 -1.000000
vn 1.000000 0.000000 0.000000
vn 1.000000 0.000000 0.000000
vn 1.000000 0.000000 0.000000
vn 1.000000 0.000000 0.000000
vn 0.000000 1.000000 0.000000
vn 0.000000 1.000000 0.000000
vn 0.000000 1.000000 0.000000
vn 0.000000 1.000000 0.000000
vn 0.000000 0.000000 -1.000000
vn 0.000000 0.000000 -1.000000
vn 0.000000 0.000000 -1.000000
vn 0.000000 0.000000 -1.000000
vn 1.000000 0.000000 0.000000
vn 1.000000 0.000000 0.000000
vn 1.000000 0.000000 0.000000
vn 1.000000 0.000000 0.000000
vn 0.000000 1.000000 0.000000
vn 0.000000 1.000000 0.000000
vn 0.000000 1.000000 0.000000
vn 0.000000 1.000000 0.000000
vn 0.000000 0.000000 -1.000000
vn 0.000000 0.000000 -1.000000
vn 0.000000 0.000000 -1.000000
vn 0.000000 0.000000 -1.000000
vn 1.000000 0.000000 0.000000
vn 1.000000 0.000000 0.000000
vn 1.000000 0.000000 0.000000
vn 1.000000 0.000000 0.000000
vn 0.000000 1.000000 0.000000
vn 0.000000 1.000000 0.000000
vn 0.000000 1.000000 0.000000
vn 0.000000 1.000000 0.000000
vn 0.000000 0.000000 -1.000000
vn 0.000000 0.000000 -1.000000
vn 0.000000 0.000000 -1.000000
vn 0.000000 0.000000 -1.000000
vn 1.000000 0.000000 0.000000
vn 1.000000 0.000000 0.000000
vn 1.000000 0.000000 0.000000
vn 1.000000 0.000000 0.000000
s off
g polySurface174
usemtl lambert2SG
f 2/1/1 3/2/2 5/3/3 4/4/4
f 4/5/5 5/6/6 7/7/7 6/8/8
f 1/9/9 7/7/10 5/6/11 3/10/12
f 14/11/13 15/12/14 16/13/15 17/14/16
s 1
f 10/15/17 11/16/18 13/17/19 12/18/20
s 2
f 8/19/21 13/20/22 11/21/23 9/22/24
f 9/22/24 11/21/23 16/23/25 15/24/26
s 1
f 11/16/18 10/15/17 17/14/27 16/13/28
s off
f 19/25/29 20/26/30 22/27/31 21/28/32
f 21/28/33 22/27/34 24/29/35 23/30/36
f 18/31/37 24/32/38 22/27/39 20/26/40
f 26/33/41 27/34/42 29/35/43 28/36/44
f 28/36/45 29/35/46 31/37/47 30/38/48
f 25/39/49 31/40/50 29/35/51 27/34/52
f 33/41/53 34/42/54 36/43/55 35/44/56
f 35/44/57 36/43/58 38/45/59 37/46/60
f 32/47/61 38/48/62 36/43/63 34/42/64
f 40/49/65 41/50/66 43/51/67 42/52/68
f 42/52/69 43/51/70 45/53/71 44/54/72
f 39/55/73 45/56/74 43/51/75 41/50/76
f 47/57/77 48/58/78 50/59/79 49/60/80
f 49/60/81 50/59/82 52/61/83 51/62/84
f 46/63/85 52/64/86 50/59/87 48/58/88
f 54/65/89 55/66/90 57/67/91 56/68/92
f 56/68/93 57/67/94 59/69/95 58/70/96
f 53/71/97 59/72/98 57/67/99 55/66/100
